<svg xmlns="http://www.w3.org/2000/svg" viewBox="0 0 250 250" width="256" height="256"><path fill="#ff6666" d="M220.22,41.5h0a54.37,54.37,0,0,0-76.9,0L125,59.8,106.69,41.5a54.38,54.38,0,0,0-76.91,0h0a54.4,54.4,0,0,0,0,76.91l9.49,9.48H78.21L94.72,64.27l23.83,106L143,85.48l20.72,63.62,9.13-21.6h38.24l9.09-9.09A54.4,54.4,0,0,0,220.22,41.5Z" class="colorf66 svgShape"></path><path fill="#ffeef3" d="M108.72,43.53l-2-2a54.38,54.38,0,0,0-76.91,0h0a54.4,54.4,0,0,0,0,76.91l1.82,1.81c-13-21.21-9.73-50,8.56-68.3h0C58.52,33.56,87.49,30.34,108.72,43.53Z" class="colorffeef3 svgShape"></path><path fill="#ff6666" d="M163.76,149.1,143,85.48l-24.49,84.83-23.83-106L78.21,127.89H39.27l8.82,8.82,69,69a11.15,11.15,0,0,0,15.76,0l69-69,9.22-9.21H172.89Z" class="colorf66 svgShape"></path><path fill="#d35454" d="M220.22,41.5h0a54.08,54.08,0,0,0-27.56-14.82c33,18,33.55,53.1,23.74,72.15s-80.95,86.66-100.83,105.35l1.56,1.57a11.15,11.15,0,0,0,15.76,0l69-69,9.22-9.21,9.09-9.09A54.4,54.4,0,0,0,220.22,41.5Z" class="colord35454 svgShape"></path><path fill="none" stroke="#000" stroke-linecap="round" stroke-linejoin="round" stroke-width="4" d="M211.71 127.5l9.09-9.09a54.38 54.38 0 000-76.91h0a54.38 54.38 0 00-76.91 0l-18.3 18.3L107.28 41.5a54.38 54.38 0 00-76.91 0h0a54.38 54.38 0 000 76.91l9.49 9.48M211.71 127.5l-9.21 9.21-69 69a11.14 11.14 0 01-15.75 0l-69-69-8.82-8.82" class="colorStroke000 svgStroke"></path><line x1="235.56" x2="211.71" y1="127.5" y2="127.5" fill="none" stroke="#000" stroke-linecap="round" stroke-linejoin="round" stroke-width="4" class="colorStroke000 svgStroke"></line><polyline fill="none" stroke="#000" stroke-linecap="round" stroke-linejoin="round" stroke-width="4" points="211.71 127.5 173.48 127.5 164.34 149.1 143.63 85.48 119.14 170.31 95.31 64.27 78.8 127.89 39.86 127.89"></polyline><line x1="39.86" x2="13.27" y1="127.89" y2="127.89" fill="none" stroke="#000" stroke-linecap="round" stroke-linejoin="round" stroke-width="4" class="colorStroke000 svgStroke"></line><path fill="none" stroke="#000" stroke-linecap="round" stroke-linejoin="round" stroke-width="4" d="M105.12 206.09s-13.45-15.33-39.76-7.52M106.85 216.31s-20.44-5.41-30.36 8.12M146.05 206.09s13.45-15.33 39.76-7.52M174.69 224.43c-9.92-13.53-30.37-8.12-30.37-8.12" class="colorStroke000 svgStroke"></path></svg>